<?xml version="1.0" standalone="yes"?>
<svg xmlns="http://www.w3.org/2000/svg" width="714" height="690">
<path style="fill:#020202; stroke:none;" d="M0 0L0 690L714 690L714 0L0 0z"/>
<path style="fill:#265869; stroke:none;" d="M335 17L335 18L340 18L335 17z"/>
<path style="fill:#2db8fe; stroke:none;" d="M340 17.4244C319.547 20.1099 299.276 21.0048 279 25.6512C221.597 38.8058 167.161 66.8846 124 107.089C93.9489 135.083 70.0363 168.339 51.7531 205C35.5386 237.513 24.8269 274.763 21.9144 311C18.3394 355.478 21.6724 399.21 35.3441 442C84.7242 596.55 245.056 688.487 403 667.718C560.583 646.997 684.997 514.034 691.961 355C698.589 203.622 590.891 70.3089 448 29.5787C414.741 20.0983 374.619 12.8788 340 17.4244z"/>
<path style="fill:#265869; stroke:none;" d="M372 17L372 18L377 18L372 17M322 18L322 19L325 19L322 18M387 18L387 19L390 19L387 18M313 19L313 20L316 20L313 19M396 19L396 20L399 20L396 19M306.667 20.3333L307.333 20.6667L306.667 20.3333M404.667 20.3333L405.333 20.6667L404.667 20.3333M299.667 21.3333L300.333 21.6667L299.667 21.3333M411.667 21.3333L412.333 21.6667L411.667 21.3333M293.667 22.3333L294.333 22.6667L293.667 22.3333M417.667 22.3333L418.333 22.6667L417.667 22.3333M288.667 23.3333L289.333 23.6667L288.667 23.3333M422.667 23.3333L423.333 23.6667L422.667 23.3333M283.667 24.3333L284.333 24.6667L283.667 24.3333M427.667 24.3333L428.333 24.6667L427.667 24.3333M279 25L280 26L279 25M432 25L433 26L432 25M274.667 26.3333L275.333 26.6667L274.667 26.3333M436.667 26.3333L437.333 26.6667L436.667 26.3333M270.667 27.3333L271.333 27.6667L270.667 27.3333M440.667 27.3333L441.333 27.6667L440.667 27.3333M267 28L268 29L267 28M444 28L445 29L444 28M263.667 29.3333L264.333 29.6667L263.667 29.3333M447.667 29.3333L448.333 29.6667L447.667 29.3333M259.667 30.3333L260.333 30.6667L259.667 30.3333M451.667 30.3333L452.333 30.6667L451.667 30.3333M256.667 31.3333L257.333 31.6667L256.667 31.3333M454.667 31.3333L455.333 31.6667L454.667 31.3333M253 32L254 33L253 32M458 32L459 33L458 32M250 33L251 34L250 33M461 33L462 34L461 33M247 34L248 35L247 34M464 34L465 35L464 34M244 35L245 36L244 35M467 35L468 36L467 35M241 36L242 37L241 36M470 36L471 37L470 36M238 37L239 38L238 37M473 37L474 38L473 37M235.667 38.3333L236.333 38.6667L235.667 38.3333M475.667 38.3333L476.333 38.6667L475.667 38.3333M233 39L234 40L233 39M478 39L479 40L478 39M230 40L231 41L230 40M481 40L482 41L481 40M228 41L229 42L228 41M483 41L484 42L483 41M225 42L226 43L225 42M486 42L487 43L486 42M223 43L224 44L223 43M488 43L489 44L488 43M220 44L221 45L220 44M491 44L492 45L491 44M218 45L219 46L218 45M493 45L494 46L493 45M216 46L217 47L216 46M495 46L496 47L495 46M214 47L215 48L214 47M497 47L498 48L497 47M209 49L210 50L209 49M502 49L503 50L502 49M207 50L208 51L207 50M504 50L505 51L504 50M205 51L206 52L205 51M506 51L507 52L506 51M203 52L204 53L203 52M508 52L509 53L508 52M201 53L202 54L201 53M510 53L511 54L510 53M199 54L200 55L199 54M512 54L513 55L512 54M197 55L198 56L197 55M514 55L515 56L514 55M195 56L196 57L195 56M516 56L517 57L516 56M190 59L191 60L190 59M521 59L522 60L521 59M188 60L189 61L188 60M523 60L524 61L523 60M186 61L187 62L186 61M525 61L526 62L525 61M183 63L184 64L183 63M528 63L529 64L528 63M181 64L182 65L181 64M530 64L531 65L530 64M178 66L179 67L178 66M533 66L534 67L533 66M176 67L177 68L176 67M535 67L536 68L535 67M173 69L174 70L173 69M538 69L539 70L538 69M171 70L172 71L171 70M540 70L541 71L540 70M170 71L171 72L170 71M541 71L542 72L541 71M168 72L169 73L168 72M543 72L544 73L543 72M165 74L166 75L165 74M546 74L547 75L546 74M162 76L163 77L162 76M549 76L550 77L549 76M161 77L162 78L161 77M550 77L551 78L550 77M158 79L159 80L158 79M553 79L554 80L553 79M155 81L156 82L155 81M556 81L557 82L556 81M154 82L155 83L154 82M557 82L558 83L557 82M151 84L152 85L151 84M560 84L561 85L560 84M147 87L148 88L147 87M564 87L565 88L564 87M146 88L147 89L146 88M565 88L566 89L565 88M143 90L144 91L143 90M568 90L569 91L568 90M142 91L143 92L142 91M569 91L570 92L569 91M141 92L142 93L141 92M570 92L571 93L570 92M137 95L138 96L137 95M574 95L575 96L574 95M136 96L137 97L136 96M575 96L576 97L575 96M131 100L132 101L131 100M580 100L581 101L580 100M130 101L131 102L130 101M581 101L582 102L581 101M129 102L130 103L129 102M582 102L583 103L582 102M128 103L129 104L128 103M583 103L584 104L583 103M119 111L120 112L119 111M592 111L593 112L592 111M118 112L119 113L118 112M593 112L594 113L593 112M117 113L118 114L117 113M594 113L595 114L594 113M116 114L117 115L116 114M595 114L596 115L595 114M115 115L116 116L115 115M596 115L597 116L596 115M114 116L115 117L114 116M597 116L598 117L597 116M113 117L114 118L113 117M598 117L599 118L598 117M112 118L113 119L112 118M599 118L600 119L599 118M111 119L112 120L111 119M600 119L601 120L600 119M110 120L111 121L110 120M601 120L602 121L601 120M103 128L104 129L103 128M608 128L609 129L608 128M102 129L103 130L102 129M609 129L610 130L609 129M101 130L102 131L101 130M610 130L611 131L610 130M100 131L101 132L100 131M611 131L612 132L611 131M96 136L97 137L96 136M615 136L616 137L615 136M95 137L96 138L95 137M616 137L617 138L616 137M94 138L95 139L94 138M617 138L618 139L617 138M91 142L92 143L91 142M620 142L621 143L620 142M90 143L91 144L90 143M621 143L622 144L621 143M87 147L88 148L87 147M624 147L625 148L624 147M86 148L87 149L86 148M625 148L626 149L625 148M84 151L85 152L84 151M627 151L628 152L627 151M83 152L84 153L83 152M628 152L629 153L628 152M81 155L82 156L81 155M630 155L631 156L630 155M80 156L81 157L80 156M631 156L632 157L631 156M78 159L79 160L78 159M633 159L634 160L633 159M76 162L77 163L76 162M635 162L636 163L635 162M74 165L75 166L74 165M637 165L638 166L637 165M72 168L73 169L72 168M639 168L640 169L639 168M70 171L71 172L70 171M641 171L642 172L641 171M68 174L69 175L68 174M643 174L644 175L643 174M67 176L68 177L67 176M644 176L645 177L644 176M65 179L66 180L65 179M646 179L647 180L646 179M64 181L65 182L64 181M647 181L648 182L647 181M62 184L63 185L62 184M649 184L650 185L649 184M61 186L62 187L61 186M650 186L651 187L650 186M60 188L61 189L60 188M651 188L652 189L651 188M57 193L58 194L57 193M654 193L655 194L654 193M117 194L117 195L594 195C583.02 190.393 563.944 194 552 194L455 194L117 194M56 195L57 196L56 195z"/>
<path style="fill:#020202; stroke:none;" d="M117 195L117 275L466 275L466 517L530 517L530 338L530 293L531.603 276.603L548 275L594 275L594 195L117 195z"/>
<path style="fill:#265869; stroke:none;" d="M655 195L656 196L655 195M55 197L56 198L55 197M656 197L657 198L656 197M54 199L55 200L54 199M657 199L658 200L657 199M53 201L54 202L53 201M124 253L125 253L125 202L140 202C136.771 200.645 127.546 199.423 125.028 202.603C122.699 205.543 124 212.469 124 216L124 253M658 201L659 202L658 201z"/>
<path style="fill:#ffbe34; stroke:none;" d="M125 202C125 217.805 126.327 234.268 124.83 250C124.432 254.186 121.693 264.875 125.603 267.972C130.15 271.573 144.343 269 150 269L216 269L474 269L474 508L524 508L524 269L590 269L590 202L125 202z"/>
<path style="fill:#265869; stroke:none;" d="M52 203L53 204L52 203M659 203L660 204L659 203M51 205L52 206L51 205M660 205L661 206L660 205M50 207L51 208L50 207M661 207L662 208L661 207M49 209L50 210L49 209M662 209L663 210L662 209M47 214L48 215L47 214M664 214L665 215L664 214M46 216L47 217L46 216M665 216L666 217L665 216M45 218L46 219L45 218M666 218L667 219L666 218M44 221L45 222L44 221M667 221L668 222L667 221M43 223L44 224L43 223M668 223L669 224L668 223M42 226L43 227L42 226M669 226L670 227L669 226M41 228L42 229L41 228M670 228L671 229L670 228M40 231L41 232L40 231M671 231L672 232L671 231M39.3333 233.667L39.6667 234.333L39.3333 233.667M672.333 233.667L672.667 234.333L672.333 233.667M38 236L39 237L38 236M673 236L674 237L673 236M37 239L38 240L37 239M674 239L675 240L674 239M36 242L37 243L36 242M675 242L676 243L675 242M35 245L36 246L35 245M676 245L677 246L676 245M34 248L35 249L34 248M677 248L678 249L677 248M33.3333 251.667L33.6667 252.333L33.3333 251.667M678.333 251.667L678.667 252.333L678.333 251.667M590 253L590 269L591 269L590 253M32 255L33 256L32 255M679 255L680 256L679 255M31.3333 258.667L31.6667 259.333L31.3333 258.667M680.333 258.667L680.667 259.333L680.333 258.667M30 262L31 263L30 262M681 262L682 263L681 262M29 266L30 267L29 266M682 266L683 267L682 266M124 268L125 269L124 268M125 269L125 270L473 270L473 508L474 508L474 269L125 269M527 269L527 270L590 270L570 269L527 269M28.3333 270.667L28.6667 271.333L28.3333 270.667M683.333 270.667L683.667 271.333L683.333 270.667M27.3333 274.667L27.6667 275.333L27.3333 274.667M684.333 274.667L684.667 275.333L684.333 274.667M117 275L117 276L376 276L441 276C446.269 276 459.429 273.636 463.397 277.603C466.663 280.87 465 289.759 465 294L465 338L465 517L466 517L466 275L117 275M530 517L532 517L532 276L594 276C581.593 270.794 559.515 275 546 275C542.368 275 533.565 273.4 531.028 276.603C528.221 280.148 530 289.68 530 294L530 339L530 517M26.3333 279.667L26.6667 280.333L26.3333 279.667M685.333 279.667L685.667 280.333L685.333 279.667M203 280L203 281L209 281L203 280M178 304L179 304C181.58 293.239 190.901 283.731 202 282C191.008 278.102 179.371 294.852 178 304z"/>
<path style="fill:#020202; stroke:none;" d="M207 339L207 338C177.119 335.375 173.489 287.308 205 284.569C219.697 283.291 231.401 300.747 229.814 314C228.324 326.443 219.472 334.672 208 338C218.54 341.199 229.853 327.818 232.557 319C237.774 301.99 226.853 283.788 209 281.301C171.259 276.042 167.415 338.668 207 339z"/>
<path style="fill:#265869; stroke:none;" d="M210 281L210 282L214 282L210 281M214 282L214 283L217 283L214 282M217.667 283.333L218.333 283.667L217.667 283.333M25.3333 284.667L25.6667 285.333L25.3333 284.667M204 284L204 285L211 286L204 284M219 284L222 286L219 284M686.333 284.667L686.667 285.333L686.333 284.667M200.667 285.333L201.333 285.667L200.667 285.333z"/>
<path style="fill:#ffbe34; stroke:none;" d="M202 285.519C171.583 291.97 180.4 343.775 212 336.471C240.308 329.927 231.56 279.25 202 285.519z"/>
<path style="fill:#265869; stroke:none;" d="M197.667 286.333L198.333 286.667L197.667 286.333z"/>
<path style="fill:#84bda8; stroke:none;" d="M212 286L213 287L212 286z"/>
<path style="fill:#265869; stroke:none;" d="M213 286L214 287L213 286M222 286L223 287L222 286z"/>
<path style="fill:#84bda8; stroke:none;" d="M215 287L216 288L215 287z"/>
<path style="fill:#265869; stroke:none;" d="M223 287L224 288L223 287M194 288L195 289L194 288z"/>
<path style="fill:#84bda8; stroke:none;" d="M217 288L218 289L217 288z"/>
<path style="fill:#265869; stroke:none;" d="M224 288L225 289L224 288M24.3333 289.667L24.6667 290.333L24.3333 289.667M219 289L220 290L219 289M225 289L226 290L225 289M687 289L687 292L688 292L687 289M220 290L221 291L220 290M221 291L222 292L221 291M227 291L228 292L227 291M222 292L223 293L222 292M228 292L229 293L228 292M223 293L224 294L223 293M229 293L231 296L229 293M224 294L225 295L224 294M187 295L188 296L187 295M23.3333 296.667L23.6667 297.333L23.3333 296.667M186 296L187 297L186 296z"/>
<path style="fill:#84bda8; stroke:none;" d="M225 296L226 297L225 296z"/>
<path style="fill:#265869; stroke:none;" d="M231.333 296.667L231.667 297.333L231.333 296.667M688.333 296.667L688.667 297.333L688.333 296.667M226 297L227 298L226 297M185 298L186 299L185 298M232 298L232 301L233 301L232 298M227 299L228 300L227 299M184 300L185 301L184 300M233 301L233 306L234 306L233 301M183 302L184 305L183 302M228 302L229 303L228 302M22.3333 303.667L22.6667 304.333L22.3333 303.667M689.333 303.667L689.667 304.333L689.333 303.667M181 304L179 307L181 304M177 305L179 309L177 305M229.333 306.667L229.667 307.333L229.333 306.667M234 306L234 315L235 315L234 306M182 307L182 315L183 315L182 307z"/>
<path style="fill:#84bda8; stroke:none;" d="M229 308L230 309L229 308M177 309L178 310L177 309z"/>
<path style="fill:#265869; stroke:none;" d="M177 310L177 315L178 315L177 310z"/>
<path style="fill:#84bda8; stroke:none;" d="M176.333 311.667L176.667 312.333L176.333 311.667z"/>
<path style="fill:#265869; stroke:none;" d="M21 312L21 315L22 315L21 312M690 312L690 315L691 315L690 312z"/>
<path style="fill:#84bda8; stroke:none;" d="M175 314L175 319L176 319L175 314M229 314L230 315L229 314z"/>
<path style="fill:#265869; stroke:none;" d="M178 315L178 320L179 320L178 315M229.333 315.667L229.667 316.333L229.333 315.667M233 315L233 319L234 319L233 315M183 317L183 320L184 320L183 317z"/>
<path style="fill:#84bda8; stroke:none;" d="M228 318L229 319L228 318z"/>
<path style="fill:#265869; stroke:none;" d="M228 319L229 320L228 319M232 319L232 322L233 322L232 319M179.333 320.667L179.667 321.333L179.333 320.667M184 321L185 322L184 321z"/>
<path style="fill:#84bda8; stroke:none;" d="M227 321L228 322L227 321z"/>
<path style="fill:#265869; stroke:none;" d="M180.333 322.667L180.667 323.333L180.333 322.667M231.333 322.667L231.667 323.333L231.333 322.667z"/>
<path style="fill:#84bda8; stroke:none;" d="M175 323L175 328L176 328L175 323z"/>
<path style="fill:#265869; stroke:none;" d="M185 323L186 324L185 323M20 324L20 329L21 329L20 324M181.333 324.667L181.667 325.333L181.333 324.667M226 324L227 325L226 324M230 324L229 327L230 324M691 324L691 329L692 329L691 324M186 325L187 326L186 325M182 326L184 329L182 326M187 327L188 328L187 327z"/>
<path style="fill:#84bda8; stroke:none;" d="M224 327L225 328L224 327z"/>
<path style="fill:#265869; stroke:none;" d="M228 327L229 328L228 327z"/>
<path style="fill:#84bda8; stroke:none;" d="M176 328L176 331L177 331L176 328z"/>
<path style="fill:#265869; stroke:none;" d="M188 328L189 329L188 328M227 328L228 329L227 328M184 329L185 330L184 329M223 329L224 330L223 329M226.333 329.667L226.667 330.333L226.333 329.667M185 330L186 331L185 330M222 330L223 331L222 330z"/>
<path style="fill:#84bda8; stroke:none;" d="M177.333 331.667L177.667 332.333L177.333 331.667z"/>
<path style="fill:#265869; stroke:none;" d="M186 331L187 332L186 331M221 331L222 332L221 331M225 331L226 332L225 331M187 332L188 333L187 332M192 332L193 333L192 332M220 332L221 333L220 332M224 332L225 333L224 332z"/>
<path style="fill:#84bda8; stroke:none;" d="M178.333 333.667L178.667 334.333L178.333 333.667z"/>
<path style="fill:#265869; stroke:none;" d="M188 333L189 334L188 333M193 333L194 334L193 333M222.667 333.333L223.333 333.667L222.667 333.333M189.667 334.333L190.333 334.667L189.667 334.333M195 334L196 335L195 334M217 334L218 335L217 334M219 336L222 334L219 336z"/>
<path style="fill:#84bda8; stroke:none;" d="M179 335L180 336L179 335z"/>
<path style="fill:#265869; stroke:none;" d="M191.667 335.333L192.333 335.667L191.667 335.333M197 335L198 336L197 335M215 335L216 336L215 335z"/>
<path style="fill:#84bda8; stroke:none;" d="M180 336L181 337L180 336z"/>
<path style="fill:#265869; stroke:none;" d="M193.667 336.333L194.333 336.667L193.667 336.333M199.667 336.333L200.333 336.667L199.667 336.333M212.667 336.333L213.333 336.667L212.667 336.333M217.667 336.333L218.333 336.667L217.667 336.333z"/>
<path style="fill:#84bda8; stroke:none;" d="M181 337L182 338L181 337z"/>
<path style="fill:#265869; stroke:none;" d="M195.667 337.333L196.333 337.667L195.667 337.333M202 337L202 338L206 338L202 337z"/>
<path style="fill:#84bda8; stroke:none;" d="M206 337L207 338L206 337z"/>
<path style="fill:#265869; stroke:none;" d="M185 340L189 343L189 342L187 342L187 341L202 343L205 340L237 341L237 408C237 417.565 234.788 430.248 239 439L240 439C234.702 416.748 239 388.881 239 366C239 360.91 241.645 344.544 237.397 341.179C231.699 336.666 215.309 340.357 208 339L210 338L185 340M215.667 337.333L216.333 337.667L215.667 337.333z"/>
<path style="fill:#84bda8; stroke:none;" d="M182 338L183 339L182 338z"/>
<path style="fill:#265869; stroke:none;" d="M197 338L197 339L200 339L197 338M211 338L211 339L215 339L211 338z"/>
<path style="fill:#84bda8; stroke:none;" d="M183 339L185 341L183 339z"/>
<path style="fill:#265869; stroke:none;" d="M162 465L163 465C166.093 456.982 172.065 448.326 173.66 440C177.883 417.946 174 391.478 174 369C174 358.084 169.404 341.052 184 341C168.997 334.705 173 356.377 173 365C173 388.471 176.395 414.829 172.786 438C171.371 447.086 164.491 455.87 162 465z"/>
<path style="fill:#84bda8; stroke:none;" d="M205 340L206 341L205 340z"/>
<path style="fill:#020202; stroke:none;" d="M237 341C226.41 341 211.664 338.349 202 343L187 341L187 342L189 342C184.509 341.691 175.277 338.432 174.148 345.059C170.355 367.324 174 393.383 174 416C174 423.575 175.338 432.63 173.443 440C167.918 461.484 142.941 484.061 152.843 507C157.02 516.675 171.386 521.486 181 522.869C204.327 526.224 254.76 531.088 265.026 501.996C267.493 495.006 262.672 489.125 260.219 483C253.757 466.866 243.028 451.415 237.699 435C234.878 426.31 237 414.095 237 405L237 341z"/>
<path style="fill:#265869; stroke:none;" d="M190.667 343.333L191.333 343.667L190.667 343.333M198.667 343.333L199.333 343.667L198.667 343.333M180 440L181 440L181 346L192 346C177.289 339.827 180 356.867 180 366L180 440z"/>
<path style="fill:#ffbe34; stroke:none;" d="M181 346L181 409C181 418.64 182.938 430.732 180.096 440C175.948 453.525 168.332 467.298 162.1 480C158.837 486.65 153.147 491.969 155.854 500C158.67 508.352 168.294 512.607 176 515.305C194.895 521.919 217.944 522.006 237 515.971C245.167 513.385 256.263 509.031 258.887 500C261.396 491.367 255.183 486.825 251.413 480C244.158 466.869 236.672 451.238 231.954 437C229.026 428.163 231 416.248 231 407L231 346L181 346z"/>
<path style="fill:#265869; stroke:none;" d="M20 359L20 364L21 364L20 359M691 359L691 364L692 364L691 359M21 373L21 376L22 376L21 373M690 373L690 376L691 376L690 373M22.3333 383.667L22.6667 384.333L22.3333 383.667M689.333 383.667L689.667 384.333L689.333 383.667M23.3333 390.667L23.6667 391.333L23.3333 390.667M688.333 390.667L688.667 391.333L688.333 390.667M24.3333 397.667L24.6667 398.333L24.3333 397.667M687.333 397.667L687.667 398.333L687.333 397.667M25.3333 402.667L25.6667 403.333L25.3333 402.667M686.333 402.667L686.667 403.333L686.333 402.667M26.3333 407.667L26.6667 408.333L26.3333 407.667M685.333 407.667L685.667 408.333L685.333 407.667M27.3333 412.667L27.6667 413.333L27.3333 412.667M684.333 412.667L684.667 413.333L684.333 412.667M28.3333 416.667L28.6667 417.333L28.3333 416.667M683.333 416.667L683.667 417.333L683.333 416.667M29 421L30 422L29 421M682 421L683 422L682 421M30 425L31 426L30 425M681 425L682 426L681 425M31.3333 428.667L31.6667 429.333L31.3333 428.667M680.333 428.667L680.667 429.333L680.333 428.667M32 432L33 433L32 432M679 432L680 433L679 432M33.3333 435.667L33.6667 436.333L33.3333 435.667M678.333 435.667L678.667 436.333L678.333 435.667M231 436L232 437L231 436M232 438L233 439L232 438M34 439L35 440L34 439M677 439L678 440L677 439M233 440L234 441L233 440M240 440L241 441L240 440M179 441L180 442L179 441M35 442L36 443L35 442M234 442L235 443L234 442M241 442L242 443L241 442M676 442L677 443L676 442M178 443L179 444L178 443z"/>
<path style="fill:#84bda8; stroke:none;" d="M234 443L235 444L234 443M178 444L179 445L178 444z"/>
<path style="fill:#265869; stroke:none;" d="M242 444L243 445L242 444M36 445L37 446L36 445M177.333 445.667L177.667 446.333L177.333 445.667z"/>
<path style="fill:#84bda8; stroke:none;" d="M235 445L236 446L235 445z"/>
<path style="fill:#265869; stroke:none;" d="M675 445L676 446L675 445M243 446L244 447L243 446M236 447L237 448L236 447M37 448L38 449L37 448M176 448L177 449L176 448M244 448L245 449L244 448M674 448L675 449L674 448M237 449L238 450L237 449M175 450L176 451L175 450M245 450L246 451L245 450M38 451L39 452L38 451M238 451L239 452L238 451M673 451L674 452L673 451M174 452L175 453L174 452M39.3333 453.667L39.6667 454.333L39.3333 453.667M239 453L240 454L239 453M672.333 453.667L672.667 454.333L672.333 453.667M173 454L174 455L173 454z"/>
<path style="fill:#84bda8; stroke:none;" d="M173 455L174 456L173 455z"/>
<path style="fill:#265869; stroke:none;" d="M40 456L41 457L40 456M172.333 456.667L172.667 457.333L172.333 456.667z"/>
<path style="fill:#84bda8; stroke:none;" d="M240 456L241 457L240 456z"/>
<path style="fill:#265869; stroke:none;" d="M671 456L672 457L671 456M248 457L249 458L248 457M241 458L242 459L241 458M41 459L42 460L41 459M171 459L172 460L171 459M249 459L250 460L249 459M670 459L671 460L670 459M242 460L243 461L242 460M42 461L43 462L42 461M170 461L171 462L170 461M250 461L251 462L250 461M669 461L670 462L669 461M243 462L244 463L243 462M169 463L170 464L169 463M251 463L252 464L251 463M43 464L44 465L43 464M244 464L245 465L244 464M668 464L669 465L668 464M168 465L169 466L168 465M252 465L253 466L252 465M44 466L45 467L44 466M161 466L161 469L162 469L161 466M667 466L668 467L667 466M167.333 467.667L167.667 468.333L167.333 467.667z"/>
<path style="fill:#84bda8; stroke:none;" d="M245 467L246 468L245 467z"/>
<path style="fill:#265869; stroke:none;" d="M253 467L254 468L253 467M45 469L46 470L45 469M160.333 469.667L160.667 470.333L160.333 469.667M246 469L247 470L246 469M254 469L255 470L254 469M666 469L667 470L666 469M166 470L167 471L166 470M46 471L47 472L46 471M159.333 471.667L159.667 472.333L159.333 471.667M247 471L248 472L247 471M255 471L256 472L255 471M665 471L666 472L665 471M165 472L166 473L165 472M47 473L48 474L47 473M158 473L159 474L158 473M248 473L249 474L248 473M664 473L665 474L664 473M157.333 474.667L157.667 475.333L157.333 474.667M164 474L165 475L164 474M249 475L250 476L249 475M156 476L157 477L156 476M163 476L164 477L163 476M250 477L251 478L250 477M49 478L50 479L49 478M155 478L156 479L155 478M162 478L163 479L162 478z"/>
<path style="fill:#84bda8; stroke:none;" d="M250 478L251 479L250 478z"/>
<path style="fill:#265869; stroke:none;" d="M662 478L663 479L662 478z"/>
<path style="fill:#84bda8; stroke:none;" d="M162 479L163 480L162 479z"/>
<path style="fill:#265869; stroke:none;" d="M50 480L51 481L50 480M154.333 480.667L154.667 481.333L154.333 480.667M161.333 480.667L161.667 481.333L161.333 480.667z"/>
<path style="fill:#84bda8; stroke:none;" d="M251 480L252 481L251 480z"/>
<path style="fill:#265869; stroke:none;" d="M259 480L260 481L259 480M661 480L662 481L661 480M51 482L52 483L51 482M153 482L154 483L153 482M252 482L253 483L252 482M260 482L260 485L261 485L260 482M660 482L661 483L660 482M152.333 483.667L152.667 484.333L152.333 483.667M160 483L161 484L160 483M52 484L53 485L52 484M159 484L160 485L159 484M659 484L660 485L659 484M151.333 485.667L151.667 486.333L151.333 485.667M261.333 485.667L261.667 486.333L261.333 485.667M53 486L54 487L53 486M658 486L659 487L658 486M150.333 487.667L150.667 488.333L150.333 487.667M157 487L158 488L157 487M262 487L263 488L262 487M54 488L55 489L54 488M156 488L157 489L156 488z"/>
<path style="fill:#84bda8; stroke:none;" d="M257 488L258 489L257 488z"/>
<path style="fill:#265869; stroke:none;" d="M263 488L264 489L263 488M657 488L658 489L657 488M264 489L264 492L265 492L264 489M55 490L56 491L55 490M149 490L149 497L150 497L149 490M155.333 490.667L155.667 491.333L155.333 490.667M656 490L657 491L656 490M56 492L57 493L56 492M259 492L260 493L259 492M265 492L265 496L266 496L265 492M655 492L656 493L655 492M154 493L154 498L155 498L154 493z"/>
<path style="fill:#84bda8; stroke:none;" d="M259 493L260 494L259 493z"/>
<path style="fill:#265869; stroke:none;" d="M524 493L524 508L525 508L524 493M57 494L58 495L57 494M654 494L655 495L654 494M266 496L266 501L267 501L266 496z"/>
<path style="fill:#84bda8; stroke:none;" d="M259 497L260 498L259 497z"/>
<path style="fill:#265869; stroke:none;" d="M150 498L150 501L151 501L150 498M259 498L260 499L259 498M60 499L61 500L60 499M155.333 499.667L155.667 500.333L155.333 499.667M651 499L652 500L651 499M259 500L260 501L259 500M61 501L62 502L61 501M151 501L151 507L152 507L151 501M265.333 501.667L265.667 502.333L265.333 501.667M650 501L651 502L650 501M156 502L157 503L156 502M258 502L259 503L258 502M62 503L63 504L62 503M157 503L158 504L157 503M257 503L258 504L257 503M264.333 503.667L264.667 504.333L264.333 503.667M649 503L650 504L649 503M263.333 505.667L263.667 506.333L263.333 505.667M64 506L65 507L64 506M647 506L648 507L647 506M152 507L153 508L152 507M262 507L263 508L262 507M65 508L66 509L65 508M153.333 508.667L153.667 509.333L153.333 508.667M162 508L163 509L162 508M252 508L253 509L252 508M259 511L262 508L259 511M474 508L474 509L524 509C511.11 503.591 488.049 508 474 508M646 508L647 509L646 508M163 509L164 510L163 509M251 509L252 510L251 509M154 510L155 511L154 510M165 510L166 511L165 510M249 510L250 511L249 510M67 511L68 512L67 511M155 511L155 513L157 513L155 511M166 511L167 512L166 511z"/>
<path style="fill:#84bda8; stroke:none;" d="M167 511L168 512L167 511M247 511L248 512L247 511z"/>
<path style="fill:#265869; stroke:none;" d="M248 511L249 512L248 511M258 511L259 512L258 511M644 511L645 512L644 511M168 512L169 513L168 512M246 512L247 513L246 512M257 512L258 513L257 512M68 513L69 514L68 513M157 513L158 514L157 513M170.667 513.333L171.333 513.667L170.667 513.333M243.667 513.333L244.333 513.667L243.667 513.333M256 513L257 514L256 513M643 513L644 514L643 513M158 514L159 515L158 514M173 514L174 515L173 514M241 514L242 515L241 514M254.667 514.333L255.333 514.667L254.667 514.333M160 515L161 516L160 515M175.667 515.333L176.333 515.667L175.667 515.333M238.667 515.333L239.333 515.667L238.667 515.333M253 515L254 516L253 515M70 516L71 517L70 516M161 516L161 517L164 517L161 516M178.667 516.333L179.333 516.667L178.667 516.333M235.667 516.333L236.333 516.667L235.667 516.333M252 516L253 517L252 516M641 516L642 517L641 516M164.667 517.333L165.333 517.667L164.667 517.333M181 517L181 518L184 518L181 517M231 517L231 518L234 518L231 517M250.667 517.333L251.333 517.667L250.667 517.333M166 518L167 519L166 518M186 518L186 519L189 519L186 518M226 518L226 519L229 519L226 518M248.667 518.333L249.333 518.667L248.667 518.333M72 519L73 520L72 519M167.667 519.333L168.333 519.667L167.667 519.333M191 519L191 520L196 520L191 519M219 519L219 520L224 520L219 519M245.667 519.333L246.333 519.667L245.667 519.333M639 519L640 520L639 519M169.667 520.333L170.333 520.667L169.667 520.333M201 520L201 521L214 521L201 520M243.667 520.333L244.333 520.667L243.667 520.333M171 521L171 522L179 523L179 522L171 521M241.667 521.333L242.333 521.667L241.667 521.333M74 522L75 523L74 522M234 522L234 523L240 523L234 522M637 522L638 523L637 522M179 523L179 524L186 524L179 523M230 523L230 524L233 524L230 523M186 524L186 525L197 525L186 524M219 524L219 525L230 525L219 524M76 525L77 526L76 525M198 525L198 526L218 526L198 525M635 525L636 526L635 525M78 528L79 529L78 528M633 528L634 529L633 528M80 531L81 532L80 531M631 531L632 532L631 531M81 532L82 533L81 532M630 532L631 533L630 532M83 535L84 536L83 535M628 535L629 536L628 535M84 536L85 537L84 536M627 536L628 537L627 536M86 539L87 540L86 539M625 539L626 540L625 539M87 540L88 541L87 540M624 540L625 541L624 540M90 544L91 545L90 544M621 544L622 545L621 544M91 545L92 546L91 545M620 545L621 546L620 545M94 549L95 550L94 549M617 549L618 550L617 549M95 550L96 551L95 550M616 550L617 551L616 550M96 551L97 552L96 551M615 551L616 552L615 551M100 556L101 557L100 556M611 556L612 557L611 556M101 557L102 558L101 557M610 557L611 558L610 557M102 558L103 559L102 558M609 558L610 559L609 558M103 559L104 560L103 559M608 559L609 560L608 559M110 567L111 568L110 567M601 567L602 568L601 567M111 568L112 569L111 568M600 568L601 569L600 568M112 569L113 570L112 569M599 569L600 570L599 569M113 570L114 571L113 570M598 570L599 571L598 570M114 571L115 572L114 571M597 571L598 572L597 571M115 572L116 573L115 572M596 572L597 573L596 572M116 573L117 574L116 573M595 573L596 574L595 573M117 574L118 575L117 574M594 574L595 575L594 574M118 575L119 576L118 575M593 575L594 576L593 575M119 576L120 577L119 576M592 576L593 577L592 576M128 584L129 585L128 584M583 584L584 585L583 584M129 585L130 586L129 585M582 585L583 586L582 585M130 586L131 587L130 586M581 586L582 587L581 586M131 587L132 588L131 587M580 587L581 588L580 587M136 591L137 592L136 591M575 591L576 592L575 591M137 592L138 593L137 592M574 592L575 593L574 592M141 595L142 596L141 595M570 595L571 596L570 595M142 596L143 597L142 596M569 596L570 597L569 596M143 597L144 598L143 597M568 597L569 598L568 597M146 599L147 600L146 599M565 599L566 600L565 599M147 600L148 601L147 600M564 600L565 601L564 600M151 603L152 604L151 603M560 603L561 604L560 603M154 605L155 606L154 605M557 605L558 606L557 605M155 606L156 607L155 606M556 606L557 607L556 606M158 608L159 609L158 608M553 608L554 609L553 608M161 610L162 611L161 610M550 610L551 611L550 610M162 611L163 612L162 611M549 611L550 612L549 611M165 613L166 614L165 613M546 613L547 614L546 613M168 615L169 616L168 615M543 615L544 616L543 615M170 616L171 617L170 616M541 616L542 617L541 616M171 617L172 618L171 617M540 617L541 618L540 617M173 618L174 619L173 618M538 618L539 619L538 618M176 620L177 621L176 620M535 620L536 621L535 620M178 621L179 622L178 621M533 621L534 622L533 621M181 623L182 624L181 623M530 623L531 624L530 623M183 624L184 625L183 624M528 624L529 625L528 624M186 626L187 627L186 626M525 626L526 627L525 626M188 627L189 628L188 627M523 627L524 628L523 627M190 628L191 629L190 628M521 628L522 629L521 628M195 631L196 632L195 631M516 631L517 632L516 631M197 632L198 633L197 632M514 632L515 633L514 632M199 633L200 634L199 633M512 633L513 634L512 633M201 634L202 635L201 634M510 634L511 635L510 634M203 635L204 636L203 635M508 635L509 636L508 635M205 636L206 637L205 636M506 636L507 637L506 636M207 637L208 638L207 637M504 637L505 638L504 637M209 638L210 639L209 638M502 638L503 639L502 638M214 640L215 641L214 640M497 640L498 641L497 640M216 641L217 642L216 641M495 641L496 642L495 641M218 642L219 643L218 642M493 642L494 643L493 642M220 643L221 644L220 643M491 643L492 644L491 643M223 644L224 645L223 644M488 644L489 645L488 644M225 645L226 646L225 645M486 645L487 646L486 645M228 646L229 647L228 646M483 646L484 647L483 646M230 647L231 648L230 647M481 647L482 648L481 647M233 648L234 649L233 648M478 648L479 649L478 648M235.667 649.333L236.333 649.667L235.667 649.333M475.667 649.333L476.333 649.667L475.667 649.333M238 650L239 651L238 650M473 650L474 651L473 650M241 651L242 652L241 651M470 651L471 652L470 651M244 652L245 653L244 652M467 652L468 653L467 652M247 653L248 654L247 653M464 653L465 654L464 653M250 654L251 655L250 654M461 654L462 655L461 654M253 655L254 656L253 655M458 655L459 656L458 655M256.667 656.333L257.333 656.667L256.667 656.333M454.667 656.333L455.333 656.667L454.667 656.333M259.667 657.333L260.333 657.667L259.667 657.333M451.667 657.333L452.333 657.667L451.667 657.333M263.667 658.333L264.333 658.667L263.667 658.333M447.667 658.333L448.333 658.667L447.667 658.333M267 659L268 660L267 659M444 659L445 660L444 659M270.667 660.333L271.333 660.667L270.667 660.333M440.667 660.333L441.333 660.667L440.667 660.333M274.667 661.333L275.333 661.667L274.667 661.333M436.667 661.333L437.333 661.667L436.667 661.333M279 662L280 663L279 662M432 662L433 663L432 662M283.667 663.333L284.333 663.667L283.667 663.333M427.667 663.333L428.333 663.667L427.667 663.333M288.667 664.333L289.333 664.667L288.667 664.333M422.667 664.333L423.333 664.667L422.667 664.333M293.667 665.333L294.333 665.667L293.667 665.333M417.667 665.333L418.333 665.667L417.667 665.333M299.667 666.333L300.333 666.667L299.667 666.333M411.667 666.333L412.333 666.667L411.667 666.333M306.667 667.333L307.333 667.667L306.667 667.333M404.667 667.333L405.333 667.667L404.667 667.333M313 668L313 669L316 669L313 668M396 668L396 669L399 669L396 668M322 669L322 670L325 670L322 669M387 669L387 670L390 670L387 669M335 670L335 671L340 671L335 670M372 670L372 671L377 671L372 670z"/>
</svg>
